<svg width="42" height="42" viewBox="0 0 42 42" fill="none" xmlns="http://www.w3.org/2000/svg">
  <!-- Background shape with gradient -->
  <path opacity="0.15" fill-rule="evenodd" clip-rule="evenodd" d="M21 41C32.598 41 42 31.598 42 20C42 8.402 32.598 -1 21 -1C9.402 -1 0 8.402 0 20C0 31.598 9.402 41 21 41Z" fill="url(#paint0_linear)"/>
  
  <!-- Main game controller shape -->
  <path d="M30 15H12C9.791 15 8 16.791 8 19V27C8 29.209 9.791 31 12 31H30C32.209 31 34 29.209 34 27V19C34 16.791 32.209 15 30 15Z" fill="url(#paint1_linear)" stroke="url(#paint2_linear)" stroke-width="0.5"/>
  
  <!-- Buttons -->
  <circle cx="26" cy="23" r="3" fill="url(#paint3_linear)"/>
  <circle cx="16" cy="23" r="3" fill="url(#paint3_linear)"/>
  <rect x="24" y="10" width="4" height="8" rx="2" fill="url(#paint3_linear)"/>
  <rect x="14" y="10" width="4" height="8" rx="2" fill="url(#paint3_linear)"/>
  
  <!-- Text "GAME" -->
  <text x="21" y="38" font-family="Arial" font-size="8" font-weight="bold" text-anchor="middle" fill="url(#paint4_linear)">GAME</text>
  
  <defs>
    <linearGradient id="paint0_linear" x1="3.26667" y1="1" x2="37.8" y2="39.1334" gradientUnits="userSpaceOnUse">
      <stop offset="0.259336" stop-color="#FFDB6E"/>
      <stop offset="1" stop-color="#FFBC5E"/>
    </linearGradient>
    <linearGradient id="paint1_linear" x1="12" y1="15" x2="30" y2="31" gradientUnits="userSpaceOnUse">
      <stop offset="0.259336" stop-color="#FFDB6E"/>
      <stop offset="1" stop-color="#FFBC5E"/>
    </linearGradient>
    <linearGradient id="paint2_linear" x1="12" y1="15" x2="30" y2="31" gradientUnits="userSpaceOnUse">
      <stop offset="0.259336" stop-color="#FFDB6E"/>
      <stop offset="1" stop-color="#FFBC5E"/>
    </linearGradient>
    <linearGradient id="paint3_linear" x1="13" y1="20" x2="29" y2="26" gradientUnits="userSpaceOnUse">
      <stop offset="0.259336" stop-color="#FFDB6E"/>
      <stop offset="1" stop-color="#FFBC5E"/>
    </linearGradient>
    <linearGradient id="paint4_linear" x1="17" y1="35" x2="25" y2="40" gradientUnits="userSpaceOnUse">
      <stop offset="0.259336" stop-color="#FFDB6E"/>
      <stop offset="1" stop-color="#FFBC5E"/>
    </linearGradient>
  </defs>
</svg>